<?xml version="1.0" encoding="UTF-8" standalone="no"?>
<!-- Created with Inkscape (http://www.inkscape.org/) -->

<svg
   xmlns:dc="http://purl.org/dc/elements/1.1/"
   xmlns:cc="http://creativecommons.org/ns#"
   xmlns:rdf="http://www.w3.org/1999/02/22-rdf-syntax-ns#"
   xmlns:svg="http://www.w3.org/2000/svg"
   xmlns="http://www.w3.org/2000/svg"
   xmlns:sodipodi="http://sodipodi.sourceforge.net/DTD/sodipodi-0.dtd"
   xmlns:inkscape="http://www.inkscape.org/namespaces/inkscape"
   width="297mm"
   height="210mm"
   viewBox="0 0 1052.3622 744.09448"
   id="svg2"
   version="1.1"
   inkscape:version="0.91 r13725"
   sodipodi:docname="fondo.svg">
  <defs
     id="defs4">
    <linearGradient
       gradientTransform="translate(907.76955,506.2026)"
       gradientUnits="userSpaceOnUse"
       id="a"
       x1="67.751999"
       x2="372.271"
       y1="321.54401"
       y2="321.54401">
      <stop
         offset=".052"
         stop-color="#F78D26"
         id="stop4775" />
      <stop
         offset=".206"
         stop-color="#F68826"
         id="stop4777" />
      <stop
         offset=".432"
         stop-color="#F37A25"
         id="stop4779" />
      <stop
         offset=".477"
         stop-color="#F37625"
         id="stop4781" />
      <stop
         offset=".616"
         stop-color="#E76623"
         id="stop4783" />
      <stop
         offset=".836"
         stop-color="#DC5221"
         id="stop4785" />
      <stop
         offset=".987"
         stop-color="#D84B21"
         id="stop4787" />
    </linearGradient>
    <linearGradient
       gradientTransform="translate(907.76955,506.2026)"
       gradientUnits="userSpaceOnUse"
       id="b"
       x1="67.751999"
       x2="372.271"
       y1="104.869"
       y2="104.869">
      <stop
         offset=".052"
         stop-color="#F78D26"
         id="stop4792" />
      <stop
         offset=".206"
         stop-color="#F68826"
         id="stop4794" />
      <stop
         offset=".432"
         stop-color="#F37A25"
         id="stop4796" />
      <stop
         offset=".477"
         stop-color="#F37625"
         id="stop4798" />
      <stop
         offset=".616"
         stop-color="#E76623"
         id="stop4800" />
      <stop
         offset=".836"
         stop-color="#DC5221"
         id="stop4802" />
      <stop
         offset=".987"
         stop-color="#D84B21"
         id="stop4804" />
    </linearGradient>
    <filter
       inkscape:collect="always"
       style="color-interpolation-filters:sRGB"
       id="filter5628"
       x="-0.027392311"
       width="1.0547846"
       y="-0.19379578"
       height="1.3875916">
      <feGaussianBlur
         inkscape:collect="always"
         stdDeviation="2.6643932"
         id="feGaussianBlur5630" />
    </filter>
  </defs>
  <sodipodi:namedview
     id="base"
     pagecolor="#ffffff"
     bordercolor="#666666"
     borderopacity="1.0"
     inkscape:pageopacity="0.0"
     inkscape:pageshadow="2"
     inkscape:zoom="0.60650688"
     inkscape:cx="495.89634"
     inkscape:cy="360.24213"
     inkscape:document-units="px"
     inkscape:current-layer="layer1"
     showgrid="false"
     inkscape:snap-page="true"
     inkscape:window-width="1280"
     inkscape:window-height="971"
     inkscape:window-x="0"
     inkscape:window-y="0"
     inkscape:window-maximized="1" />
  <metadata
     id="metadata7">
    <rdf:RDF>
      <cc:Work
         rdf:about="">
        <dc:format>image/svg+xml</dc:format>
        <dc:type
           rdf:resource="http://purl.org/dc/dcmitype/StillImage" />
        <dc:title />
      </cc:Work>
    </rdf:RDF>
  </metadata>
  <g
     inkscape:label="Capa 1"
     inkscape:groupmode="layer"
     id="layer1"
     transform="translate(0,-308.26772)">
    <rect
       style="color:#000000;clip-rule:nonzero;display:inline;overflow:visible;visibility:visible;opacity:1;isolation:auto;mix-blend-mode:normal;color-interpolation:sRGB;color-interpolation-filters:linearRGB;solid-color:#000000;solid-opacity:1;fill:#f1ffff;fill-opacity:1;fill-rule:evenodd;stroke:none;stroke-width:1;stroke-linecap:butt;stroke-linejoin:miter;stroke-miterlimit:4;stroke-dasharray:none;stroke-dashoffset:0;stroke-opacity:1;color-rendering:auto;image-rendering:auto;shape-rendering:auto;text-rendering:auto;enable-background:accumulate"
       id="rect5462"
       width="1061.8182"
       height="754.38593"
       x="-3.2975733"
       y="305.93726" />
    <path
       style="color:#000000;clip-rule:nonzero;display:inline;overflow:visible;visibility:visible;opacity:1;isolation:auto;mix-blend-mode:normal;color-interpolation:sRGB;color-interpolation-filters:linearRGB;solid-color:#000000;solid-opacity:1;fill:#008080;fill-opacity:1;fill-rule:evenodd;stroke:none;stroke-width:1;stroke-linecap:butt;stroke-linejoin:miter;stroke-miterlimit:4;stroke-dasharray:none;stroke-dashoffset:0;stroke-opacity:1;color-rendering:auto;image-rendering:auto;shape-rendering:auto;text-rendering:auto;enable-background:accumulate"
       d="M 665.9707 692.25586 C 652.6747 692.25586 641.9707 702.95986 641.9707 716.25586 L 641.9707 748.25586 C 641.9707 749.07757 642.01195 749.88946 642.0918 750.68945 L 1060.1699 750.68945 L 1060.1699 692.25586 L 665.9707 692.25586 z "
       transform="translate(0,308.26772)"
       id="rect4136" />
    <circle
       style="color:#000000;clip-rule:nonzero;display:inline;overflow:visible;visibility:visible;opacity:1;isolation:auto;mix-blend-mode:normal;color-interpolation:sRGB;color-interpolation-filters:linearRGB;solid-color:#000000;solid-opacity:1;fill:#008080;fill-opacity:1;fill-rule:evenodd;stroke:none;stroke-width:1;stroke-linecap:butt;stroke-linejoin:miter;stroke-miterlimit:4;stroke-dasharray:none;stroke-dashoffset:0;stroke-opacity:1;color-rendering:auto;image-rendering:auto;shape-rendering:auto;text-rendering:auto;enable-background:accumulate"
       id="path5458"
       cx="978.48169"
       cy="997.95221"
       r="46.990398" />
    <g
       id="g5587"
       style="fill:#000000;filter:url(#filter5628);opacity:0.748"
       transform="translate(0,-56.544583)">
      <path
         inkscape:connector-curvature="0"
         id="path5541"
         style="font-style:normal;font-variant:normal;font-weight:normal;font-stretch:normal;font-size:medium;line-height:25.99999905%;font-family:Roboto;-inkscape-font-specification:Roboto;letter-spacing:1px;word-spacing:0px;fill:#000000;fill-opacity:1;stroke:none;stroke-width:1px;stroke-linecap:butt;stroke-linejoin:miter;stroke-opacity:1"
         d="m 679.06482,1070.3868 -2.81982,0 0,8.7598 -2.47559,0 0,-8.7598 -2.76856,0 0,-1.9043 8.06397,0 0,1.9043 z" />
      <path
         inkscape:connector-curvature="0"
         id="path5543"
         style="font-style:normal;font-variant:normal;font-weight:normal;font-stretch:normal;font-size:medium;line-height:25.99999905%;font-family:Roboto;-inkscape-font-specification:Roboto;letter-spacing:1px;word-spacing:0px;fill:#000000;fill-opacity:1;stroke:none;stroke-width:1px;stroke-linecap:butt;stroke-linejoin:miter;stroke-opacity:1"
         d="m 685.87292,1077.0738 -3.17138,0 -0.61524,2.0728 -2.60742,0 3.47901,-10.6641 1.32568,0 0,0.01 0.007,-0.01 1.32569,0 3.48633,10.6641 -2.60743,0 -0.62256,-2.0728 z m -2.60009,-1.9043 2.02881,0 -0.9961,-3.3105 -0.0439,0 -0.98877,3.3105 z" />
      <path
         inkscape:connector-curvature="0"
         id="path5545"
         style="font-style:normal;font-variant:normal;font-weight:normal;font-stretch:normal;font-size:medium;line-height:25.99999905%;font-family:Roboto;-inkscape-font-specification:Roboto;letter-spacing:1px;word-spacing:0px;fill:#000000;fill-opacity:1;stroke:none;stroke-width:1px;stroke-linecap:butt;stroke-linejoin:miter;stroke-opacity:1"
         d="m 693.34753,1077.2423 4.57764,0 0,1.9043 -7.05322,0 0,-10.6641 2.47558,0 0,8.7598 z" />
      <path
         inkscape:connector-curvature="0"
         id="path5547"
         style="font-style:normal;font-variant:normal;font-weight:normal;font-stretch:normal;font-size:medium;line-height:25.99999905%;font-family:Roboto;-inkscape-font-specification:Roboto;letter-spacing:1px;word-spacing:0px;fill:#000000;fill-opacity:1;stroke:none;stroke-width:1px;stroke-linecap:butt;stroke-linejoin:miter;stroke-opacity:1"
         d="m 702.72644,1077.2423 4.57764,0 0,1.9043 -7.05323,0 0,-10.6641 2.47559,0 0,8.7598 z" />
      <path
         inkscape:connector-curvature="0"
         id="path5549"
         style="font-style:normal;font-variant:normal;font-weight:normal;font-stretch:normal;font-size:medium;line-height:25.99999905%;font-family:Roboto;-inkscape-font-specification:Roboto;letter-spacing:1px;word-spacing:0px;fill:#000000;fill-opacity:1;stroke:none;stroke-width:1px;stroke-linecap:butt;stroke-linejoin:miter;stroke-opacity:1"
         d="m 715.86267,1074.5836 -3.75732,0 0,2.6587 4.50439,0 0,1.9043 -6.97998,0 0,-10.6641 6.98731,0 0,1.9043 -4.51172,0 0,2.2925 3.75732,0 0,1.9043 z" />
      <path
         inkscape:connector-curvature="0"
         id="path5551"
         style="font-style:normal;font-variant:normal;font-weight:normal;font-stretch:normal;font-size:medium;line-height:25.99999905%;font-family:Roboto;-inkscape-font-specification:Roboto;letter-spacing:1px;word-spacing:0px;fill:#000000;fill-opacity:1;stroke:none;stroke-width:1px;stroke-linecap:butt;stroke-linejoin:miter;stroke-opacity:1"
         d="m 721.48425,1075.0597 0,4.0869 -2.47558,0 0,-10.6641 3.71338,0 q 1.85302,0 2.93701,0.857 1.08398,0.8569 1.08398,2.3437 0,0.8276 -0.43945,1.4209 -0.43213,0.5933 -1.28174,0.9668 0.98145,0.2783 1.40625,0.9302 0.43213,0.6445 0.43213,1.6113 l 0,0.6738 q 0,0.4175 0.12451,0.9522 0.12451,0.5347 0.43213,0.7617 l 0,0.1465 -2.55615,0 q -0.29297,-0.2271 -0.38086,-0.7984 -0.0879,-0.5712 -0.0879,-1.0766 l 0,-0.6445 q 0,-0.7618 -0.40283,-1.1646 -0.40284,-0.4028 -1.1792,-0.4028 l -1.32569,0 z m 0,-1.9043 1.25244,0 q 0.74707,0 1.14258,-0.3369 0.39551,-0.3443 0.39551,-0.9815 0,-0.6518 -0.41016,-1.0473 -0.40283,-0.4029 -1.14257,-0.4029 l -1.2378,0 0,2.7686 z" />
      <path
         inkscape:connector-curvature="0"
         id="path5553"
         style="font-style:normal;font-variant:normal;font-weight:normal;font-stretch:normal;font-size:medium;line-height:25.99999905%;font-family:Roboto;-inkscape-font-specification:Roboto;letter-spacing:1px;word-spacing:0px;fill:#000000;fill-opacity:1;stroke:none;stroke-width:1px;stroke-linecap:butt;stroke-linejoin:miter;stroke-opacity:1"
         d="m 734.33875,1079.1466 0,-10.6641 3.9038,0 q 1.88233,0 3.14942,1.2305 1.26709,1.2231 1.26709,3.1421 l 0,1.9189 q 0,1.9263 -1.26709,3.1494 -1.26709,1.2232 -3.14942,1.2232 l -3.9038,0 z m 2.47558,-8.7598 0,6.8555 1.42822,0 q 0.84229,0 1.38428,-0.6885 0.54932,-0.6885 0.54932,-1.7798 l 0,-1.9336 q 0,-1.0766 -0.54932,-1.7651 -0.54199,-0.6885 -1.38428,-0.6885 l -1.42822,0 z" />
      <path
         inkscape:connector-curvature="0"
         id="path5555"
         style="font-style:normal;font-variant:normal;font-weight:normal;font-stretch:normal;font-size:medium;line-height:25.99999905%;font-family:Roboto;-inkscape-font-specification:Roboto;letter-spacing:1px;word-spacing:0px;fill:#000000;fill-opacity:1;stroke:none;stroke-width:1px;stroke-linecap:butt;stroke-linejoin:miter;stroke-opacity:1"
         d="m 751.38611,1074.5836 -3.75733,0 0,2.6587 4.5044,0 0,1.9043 -6.97998,0 0,-10.6641 6.9873,0 0,1.9043 -4.51172,0 0,2.2925 3.75733,0 0,1.9043 z" />
      <path
         inkscape:connector-curvature="0"
         id="path5557"
         style="font-style:normal;font-variant:normal;font-weight:normal;font-stretch:normal;font-size:22.5px;line-height:25.99999905%;font-family:Roboto;-inkscape-font-specification:Roboto;letter-spacing:1px;word-spacing:0px;fill:#000000;fill-opacity:1;stroke:none;stroke-width:1px;stroke-linecap:butt;stroke-linejoin:miter;stroke-opacity:1"
         d="m 670.68982,1085.252 3.71338,0 0,10.8655 q 0,2.4499 -1.50513,3.9111 -1.50513,1.4502 -3.8562,1.4502 -2.70264,0 -4.28467,-1.2964 -1.57104,-1.2964 -1.51611,-3.7683 l 0.033,-0.066 3.62549,0 q 0,1.1755 0.59326,1.7248 0.59326,0.5494 1.54907,0.5494 0.7251,0 1.18652,-0.6592 0.46143,-0.6702 0.46143,-1.8457 l 0,-10.8655 z" />
      <path
         inkscape:connector-curvature="0"
         id="path5559"
         style="font-style:normal;font-variant:normal;font-weight:normal;font-stretch:normal;font-size:22.5px;line-height:25.99999905%;font-family:Roboto;-inkscape-font-specification:Roboto;letter-spacing:1px;word-spacing:0px;fill:#000000;fill-opacity:1;stroke:none;stroke-width:1px;stroke-linecap:butt;stroke-linejoin:miter;stroke-opacity:1"
         d="m 691.03674,1085.252 0,10.3711 q 0,2.7466 -1.82373,4.3066 -1.82373,1.5491 -4.75708,1.5491 -2.95532,0 -4.79004,-1.5491 -1.83471,-1.56 -1.83471,-4.3066 l 0,-10.3711 3.72436,0 0,10.3711 q 0,1.4831 0.76904,2.2412 0.76905,0.7581 2.13135,0.7581 1.35132,0 2.09839,-0.7471 0.75806,-0.7581 0.75806,-2.2522 l 0,-10.3711 3.72436,0 z" />
      <path
         inkscape:connector-curvature="0"
         id="path5561"
         style="font-style:normal;font-variant:normal;font-weight:normal;font-stretch:normal;font-size:22.5px;line-height:25.99999905%;font-family:Roboto;-inkscape-font-specification:Roboto;letter-spacing:1px;word-spacing:0px;fill:#000000;fill-opacity:1;stroke:none;stroke-width:1px;stroke-linecap:butt;stroke-linejoin:miter;stroke-opacity:1"
         d="m 698.20007,1095.7659 0,5.4822 -3.71338,0 0,-15.9961 6.1084,0 q 2.84546,0 4.51538,1.4502 1.66993,1.4502 1.66993,3.8122 0,2.3621 -1.66993,3.8123 -1.66992,1.4392 -4.51538,1.4392 l -2.39502,0 z m 0,-2.8564 2.39502,0 q 1.2085,0 1.84571,-0.6592 0.6372,-0.6702 0.6372,-1.7139 0,-1.0657 -0.6372,-1.7468 -0.62622,-0.6812 -1.84571,-0.6812 l -2.39502,0 0,4.8011 z" />
      <path
         inkscape:connector-curvature="0"
         id="path5563"
         style="font-style:normal;font-variant:normal;font-weight:normal;font-stretch:normal;font-size:22.5px;line-height:25.99999905%;font-family:Roboto;-inkscape-font-specification:Roboto;letter-spacing:1px;word-spacing:0px;fill:#000000;fill-opacity:1;stroke:none;stroke-width:1px;stroke-linecap:butt;stroke-linejoin:miter;stroke-opacity:1"
         d="m 715.72351,1092.2393 0.0659,0 3.18603,-6.9873 4.021,0 -5.42725,10.3711 0,5.625 -3.70239,0 0,-5.7898 -5.33935,-10.2063 4.02099,0 3.17505,6.9873 z" />
      <path
         inkscape:connector-curvature="0"
         id="path5565"
         style="font-style:normal;font-variant:normal;font-weight:normal;font-stretch:normal;font-size:22.5px;line-height:25.99999905%;font-family:Roboto;-inkscape-font-specification:Roboto;letter-spacing:1px;word-spacing:0px;fill:#000000;fill-opacity:1;stroke:none;stroke-width:1px;stroke-linecap:butt;stroke-linejoin:miter;stroke-opacity:1"
         d="m 736.53186,1088.1084 -4.22974,0 0,13.1397 -3.71337,0 0,-13.1397 -4.15284,0 0,-2.8564 12.09595,0 0,2.8564 z" />
      <path
         inkscape:connector-curvature="0"
         id="path5567"
         style="font-style:normal;font-variant:normal;font-weight:normal;font-stretch:normal;font-size:22.5px;line-height:25.99999905%;font-family:Roboto;-inkscape-font-specification:Roboto;letter-spacing:1px;word-spacing:0px;fill:#000000;fill-opacity:1;stroke:none;stroke-width:1px;stroke-linecap:butt;stroke-linejoin:miter;stroke-opacity:1"
         d="m 748.40833,1094.4036 -5.63599,0 0,3.988 6.75659,0 0,2.8565 -10.46997,0 0,-15.9961 10.48096,0 0,2.8564 -6.76758,0 0,3.4388 5.63599,0 0,2.8564 z" />
      <path
         inkscape:connector-curvature="0"
         id="path5569"
         style="font-style:normal;font-variant:normal;font-weight:normal;font-stretch:normal;font-size:22.5px;line-height:25.99999905%;font-family:Roboto;-inkscape-font-specification:Roboto;letter-spacing:1px;word-spacing:0px;fill:#000000;fill-opacity:1;stroke:none;stroke-width:1px;stroke-linecap:butt;stroke-linejoin:miter;stroke-opacity:1"
         d="m 756.3407,1095.1177 0,6.1304 -3.71338,0 0,-15.9961 5.57007,0 q 2.77954,0 4.40552,1.2854 1.62597,1.2854 1.62597,3.5156 0,1.2415 -0.65918,2.1314 -0.64819,0.8899 -1.92261,1.4502 1.47217,0.4174 2.10938,1.3952 0.64819,0.9668 0.64819,2.417 l 0,1.0108 q 0,0.6262 0.18677,1.4282 0.18677,0.802 0.64819,1.1426 l 0,0.2197 -3.83422,0 q -0.43946,-0.3406 -0.57129,-1.1975 -0.13184,-0.857 -0.13184,-1.615 l 0,-0.9668 q 0,-1.1426 -0.60425,-1.7468 -0.60425,-0.6043 -1.7688,-0.6043 l -1.98852,0 z m 0,-2.8564 1.87866,0 q 1.12061,0 1.71387,-0.5054 0.59326,-0.5164 0.59326,-1.4722 0,-0.9777 -0.61524,-1.571 -0.60424,-0.6043 -1.71386,-0.6043 l -1.85669,0 0,4.1529 z" />
      <path
         inkscape:connector-curvature="0"
         id="path5571"
         style="font-style:normal;font-variant:normal;font-weight:normal;font-stretch:normal;font-size:22.5px;line-height:25.99999905%;font-family:Roboto;-inkscape-font-specification:Roboto;letter-spacing:1px;word-spacing:0px;fill:#000000;fill-opacity:1;stroke:none;stroke-width:1px;stroke-linecap:butt;stroke-linejoin:miter;stroke-opacity:1"
         d="m 787.95984,1101.2481 -3.70239,0 -5.85572,-10.0635 -0.0659,0.022 0,10.0415 -3.71338,0 0,-15.9961 3.71338,0 5.85571,10.0525 0.0659,-0.022 0,-10.0305 3.70239,0 0,15.9961 z" />
      <path
         inkscape:connector-curvature="0"
         id="path5573"
         style="font-style:normal;font-variant:normal;font-weight:normal;font-stretch:normal;font-size:22.5px;line-height:25.99999905%;font-family:Roboto;-inkscape-font-specification:Roboto;letter-spacing:1px;word-spacing:0px;fill:#000000;fill-opacity:1;stroke:none;stroke-width:1px;stroke-linecap:butt;stroke-linejoin:miter;stroke-opacity:1"
         d="m 804.8241,1094.6893 q 0,2.9553 -1.87867,4.8779 -1.86767,1.9116 -4.88891,1.9116 -3.04321,0 -4.93286,-1.9116 -1.88965,-1.9226 -1.88965,-4.8779 l 0,-2.8785 q 0,-2.9443 1.87866,-4.8669 1.88965,-1.9226 4.92188,-1.9226 3.01025,0 4.8999,1.9226 1.88965,1.9226 1.88965,4.8669 l 0,2.8785 z m -3.7024,-2.9004 q 0,-1.7139 -0.81298,-2.8125 -0.80201,-1.0987 -2.27417,-1.0987 -1.50513,0 -2.30713,1.0987 -0.79102,1.0876 -0.79102,2.8125 l 0,2.9004 q 0,1.7358 0.802,2.8344 0.81299,1.0987 2.31812,1.0987 1.46118,0 2.26318,-1.0987 0.802,-1.0986 0.802,-2.8344 l 0,-2.9004 z" />
      <path
         inkscape:connector-curvature="0"
         id="path5575"
         style="font-style:normal;font-variant:normal;font-weight:normal;font-stretch:normal;font-size:22.5px;line-height:25.99999905%;font-family:Roboto;-inkscape-font-specification:Roboto;letter-spacing:1px;word-spacing:0px;fill:#000000;fill-opacity:1;stroke:none;stroke-width:1px;stroke-linecap:butt;stroke-linejoin:miter;stroke-opacity:1"
         d="m 818.90881,1088.1084 -4.22973,0 0,13.1397 -3.71338,0 0,-13.1397 -4.15283,0 0,-2.8564 12.09594,0 0,2.8564 z" />
      <path
         inkscape:connector-curvature="0"
         id="path5577"
         style="font-style:normal;font-variant:normal;font-weight:normal;font-stretch:normal;font-size:22.5px;line-height:25.99999905%;font-family:Roboto;-inkscape-font-specification:Roboto;letter-spacing:1px;word-spacing:0px;fill:#000000;fill-opacity:1;stroke:none;stroke-width:1px;stroke-linecap:butt;stroke-linejoin:miter;stroke-opacity:1"
         d="m 830.78528,1094.4036 -5.63599,0 0,3.988 6.75659,0 0,2.8565 -10.46997,0 0,-15.9961 10.48096,0 0,2.8564 -6.76758,0 0,3.4388 5.63599,0 0,2.8564 z" />
      <path
         inkscape:connector-curvature="0"
         id="path5579"
         style="font-style:normal;font-variant:normal;font-weight:normal;font-stretch:normal;font-size:22.5px;line-height:25.99999905%;font-family:Roboto;-inkscape-font-specification:Roboto;letter-spacing:1px;word-spacing:0px;fill:#000000;fill-opacity:1;stroke:none;stroke-width:1px;stroke-linecap:butt;stroke-linejoin:miter;stroke-opacity:1"
         d="m 835.00427,1101.2481 0,-15.9961 5.24048,0 q 2.9773,0 4.63623,1.1096 1.66992,1.0986 1.66992,3.2849 0,1.1426 -0.52734,2.0325 -0.52734,0.8789 -1.64795,1.3293 1.42822,0.3077 2.10938,1.2745 0.69213,0.9668 0.69213,2.2302 0,2.3401 -1.57104,3.5376 -1.57105,1.1975 -4.5044,1.1975 l -6.09741,0 z m 3.71338,-6.8665 0,4.01 2.38403,0 q 1.18653,0 1.77979,-0.4614 0.59326,-0.4724 0.59326,-1.4392 0,-1.0217 -0.52734,-1.5491 -0.51636,-0.5273 -1.71387,-0.5603 l -0.12085,0 -2.39502,0 z m 0,-2.4609 1.46118,0 q 1.34034,0 1.99951,-0.4614 0.65918,-0.4724 0.65918,-1.3953 0,-1.0217 -0.6372,-1.4831 -0.63721,-0.4725 -1.95557,-0.4725 l -1.5271,0 0,3.8123 z" />
      <path
         inkscape:connector-curvature="0"
         id="path5581"
         style="font-style:normal;font-variant:normal;font-weight:normal;font-stretch:normal;font-size:22.5px;line-height:25.99999905%;font-family:Roboto;-inkscape-font-specification:Roboto;letter-spacing:1px;word-spacing:0px;fill:#000000;fill-opacity:1;stroke:none;stroke-width:1px;stroke-linecap:butt;stroke-linejoin:miter;stroke-opacity:1"
         d="m 863.66785,1094.6893 q 0,2.9553 -1.87867,4.8779 -1.86767,1.9116 -4.88891,1.9116 -3.04321,0 -4.93286,-1.9116 -1.88965,-1.9226 -1.88965,-4.8779 l 0,-2.8785 q 0,-2.9443 1.87866,-4.8669 1.88965,-1.9226 4.92188,-1.9226 3.01025,0 4.8999,1.9226 1.88965,1.9226 1.88965,4.8669 l 0,2.8785 z m -3.7024,-2.9004 q 0,-1.7139 -0.81298,-2.8125 -0.80201,-1.0987 -2.27417,-1.0987 -1.50513,0 -2.30713,1.0987 -0.79102,1.0876 -0.79102,2.8125 l 0,2.9004 q 0,1.7358 0.802,2.8344 0.81299,1.0987 2.31812,1.0987 1.46118,0 2.26318,-1.0987 0.802,-1.0986 0.802,-2.8344 l 0,-2.9004 z" />
      <path
         inkscape:connector-curvature="0"
         id="path5583"
         style="font-style:normal;font-variant:normal;font-weight:normal;font-stretch:normal;font-size:22.5px;line-height:25.99999905%;font-family:Roboto;-inkscape-font-specification:Roboto;letter-spacing:1px;word-spacing:0px;fill:#000000;fill-opacity:1;stroke:none;stroke-width:1px;stroke-linecap:butt;stroke-linejoin:miter;stroke-opacity:1"
         d="m 880.22449,1094.6893 q 0,2.9553 -1.87866,4.8779 -1.86768,1.9116 -4.88892,1.9116 -3.04321,0 -4.93286,-1.9116 -1.88965,-1.9226 -1.88965,-4.8779 l 0,-2.8785 q 0,-2.9443 1.87866,-4.8669 1.88965,-1.9226 4.92188,-1.9226 3.01025,0 4.8999,1.9226 1.88965,1.9226 1.88965,4.8669 l 0,2.8785 z m -3.7024,-2.9004 q 0,-1.7139 -0.81298,-2.8125 -0.80201,-1.0987 -2.27417,-1.0987 -1.50513,0 -2.30713,1.0987 -0.79102,1.0876 -0.79102,2.8125 l 0,2.9004 q 0,1.7358 0.802,2.8344 0.81299,1.0987 2.31812,1.0987 1.46118,0 2.26318,-1.0987 0.802,-1.0986 0.802,-2.8344 l 0,-2.9004 z" />
      <path
         inkscape:connector-curvature="0"
         id="path5585"
         style="font-style:normal;font-variant:normal;font-weight:normal;font-stretch:normal;font-size:22.5px;line-height:25.99999905%;font-family:Roboto;-inkscape-font-specification:Roboto;letter-spacing:1px;word-spacing:0px;fill:#000000;fill-opacity:1;stroke:none;stroke-width:1px;stroke-linecap:butt;stroke-linejoin:miter;stroke-opacity:1"
         d="m 888.23376,1094.8321 -1.03271,0 0,6.416 -3.71338,0 0,-15.9961 3.71338,0 0,6.2622 0.76904,0 3.6145,-6.2622 4.66919,0 -5.03173,7.2729 5.4602,8.7232 -4.76807,0 -3.68042,-6.416 z" />
    </g>
    <path
       inkscape:connector-curvature="0"
       id="path5471"
       style="font-style:normal;font-variant:normal;font-weight:normal;font-stretch:normal;font-size:medium;line-height:25.99999905%;font-family:Roboto;-inkscape-font-specification:Roboto;letter-spacing:1px;word-spacing:0px;fill:#50c7d4;fill-opacity:1;stroke:none;stroke-width:1px;stroke-linecap:butt;stroke-linejoin:miter;stroke-opacity:1"
       d="m 679.06482,1013.8422 -2.81982,0 0,8.7598 -2.47559,0 0,-8.7598 -2.76856,0 0,-1.9043 8.06397,0 0,1.9043 z" />
    <path
       inkscape:connector-curvature="0"
       id="path5473"
       style="font-style:normal;font-variant:normal;font-weight:normal;font-stretch:normal;font-size:medium;line-height:25.99999905%;font-family:Roboto;-inkscape-font-specification:Roboto;letter-spacing:1px;word-spacing:0px;fill:#50c7d4;fill-opacity:1;stroke:none;stroke-width:1px;stroke-linecap:butt;stroke-linejoin:miter;stroke-opacity:1"
       d="m 685.87292,1020.5292 -3.17138,0 -0.61524,2.0728 -2.60742,0 3.47901,-10.6641 1.32568,0 0,0.01 0.007,-0.01 1.32569,0 3.48633,10.6641 -2.60743,0 -0.62256,-2.0728 z m -2.60009,-1.9043 2.02881,0 -0.9961,-3.3105 -0.0439,0 -0.98877,3.3105 z" />
    <path
       inkscape:connector-curvature="0"
       id="path5475"
       style="font-style:normal;font-variant:normal;font-weight:normal;font-stretch:normal;font-size:medium;line-height:25.99999905%;font-family:Roboto;-inkscape-font-specification:Roboto;letter-spacing:1px;word-spacing:0px;fill:#50c7d4;fill-opacity:1;stroke:none;stroke-width:1px;stroke-linecap:butt;stroke-linejoin:miter;stroke-opacity:1"
       d="m 693.34753,1020.6977 4.57764,0 0,1.9043 -7.05322,0 0,-10.6641 2.47558,0 0,8.7598 z" />
    <path
       inkscape:connector-curvature="0"
       id="path5477"
       style="font-style:normal;font-variant:normal;font-weight:normal;font-stretch:normal;font-size:medium;line-height:25.99999905%;font-family:Roboto;-inkscape-font-specification:Roboto;letter-spacing:1px;word-spacing:0px;fill:#50c7d4;fill-opacity:1;stroke:none;stroke-width:1px;stroke-linecap:butt;stroke-linejoin:miter;stroke-opacity:1"
       d="m 702.72644,1020.6977 4.57764,0 0,1.9043 -7.05323,0 0,-10.6641 2.47559,0 0,8.7598 z" />
    <path
       inkscape:connector-curvature="0"
       id="path5479"
       style="font-style:normal;font-variant:normal;font-weight:normal;font-stretch:normal;font-size:medium;line-height:25.99999905%;font-family:Roboto;-inkscape-font-specification:Roboto;letter-spacing:1px;word-spacing:0px;fill:#50c7d4;fill-opacity:1;stroke:none;stroke-width:1px;stroke-linecap:butt;stroke-linejoin:miter;stroke-opacity:1"
       d="m 715.86267,1018.039 -3.75732,0 0,2.6587 4.50439,0 0,1.9043 -6.97998,0 0,-10.6641 6.98731,0 0,1.9043 -4.51172,0 0,2.2925 3.75732,0 0,1.9043 z" />
    <path
       inkscape:connector-curvature="0"
       id="path5481"
       style="font-style:normal;font-variant:normal;font-weight:normal;font-stretch:normal;font-size:medium;line-height:25.99999905%;font-family:Roboto;-inkscape-font-specification:Roboto;letter-spacing:1px;word-spacing:0px;fill:#50c7d4;fill-opacity:1;stroke:none;stroke-width:1px;stroke-linecap:butt;stroke-linejoin:miter;stroke-opacity:1"
       d="m 721.48425,1018.5151 0,4.0869 -2.47558,0 0,-10.6641 3.71338,0 q 1.85302,0 2.93701,0.857 1.08398,0.8569 1.08398,2.3437 0,0.8276 -0.43945,1.4209 -0.43213,0.5933 -1.28174,0.9668 0.98145,0.2783 1.40625,0.9302 0.43213,0.6445 0.43213,1.6113 l 0,0.6738 q 0,0.4175 0.12451,0.9522 0.12451,0.5347 0.43213,0.7617 l 0,0.1465 -2.55615,0 q -0.29297,-0.2271 -0.38086,-0.7984 -0.0879,-0.5712 -0.0879,-1.0766 l 0,-0.6445 q 0,-0.7618 -0.40283,-1.1646 -0.40284,-0.4028 -1.1792,-0.4028 l -1.32569,0 z m 0,-1.9043 1.25244,0 q 0.74707,0 1.14258,-0.3369 0.39551,-0.3443 0.39551,-0.9815 0,-0.6518 -0.41016,-1.0473 -0.40283,-0.4029 -1.14257,-0.4029 l -1.2378,0 0,2.7686 z" />
    <path
       inkscape:connector-curvature="0"
       id="path5483"
       style="font-style:normal;font-variant:normal;font-weight:normal;font-stretch:normal;font-size:medium;line-height:25.99999905%;font-family:Roboto;-inkscape-font-specification:Roboto;letter-spacing:1px;word-spacing:0px;fill:#50c7d4;fill-opacity:1;stroke:none;stroke-width:1px;stroke-linecap:butt;stroke-linejoin:miter;stroke-opacity:1"
       d="m 734.33875,1022.602 0,-10.6641 3.9038,0 q 1.88233,0 3.14942,1.2305 1.26709,1.2231 1.26709,3.1421 l 0,1.9189 q 0,1.9263 -1.26709,3.1494 -1.26709,1.2232 -3.14942,1.2232 l -3.9038,0 z m 2.47558,-8.7598 0,6.8555 1.42822,0 q 0.84229,0 1.38428,-0.6885 0.54932,-0.6885 0.54932,-1.7798 l 0,-1.9336 q 0,-1.0766 -0.54932,-1.7651 -0.54199,-0.6885 -1.38428,-0.6885 l -1.42822,0 z" />
    <path
       inkscape:connector-curvature="0"
       id="path5485"
       style="font-style:normal;font-variant:normal;font-weight:normal;font-stretch:normal;font-size:medium;line-height:25.99999905%;font-family:Roboto;-inkscape-font-specification:Roboto;letter-spacing:1px;word-spacing:0px;fill:#50c7d4;fill-opacity:1;stroke:none;stroke-width:1px;stroke-linecap:butt;stroke-linejoin:miter;stroke-opacity:1"
       d="m 751.38611,1018.039 -3.75733,0 0,2.6587 4.5044,0 0,1.9043 -6.97998,0 0,-10.6641 6.9873,0 0,1.9043 -4.51172,0 0,2.2925 3.75733,0 0,1.9043 z" />
    <path
       inkscape:connector-curvature="0"
       id="path5496"
       style="font-style:normal;font-variant:normal;font-weight:normal;font-stretch:normal;font-size:22.5px;line-height:25.99999905%;font-family:Roboto;-inkscape-font-specification:Roboto;letter-spacing:1px;word-spacing:0px;fill:#a4fafa;fill-opacity:1;stroke:none;stroke-width:1px;stroke-linecap:butt;stroke-linejoin:miter;stroke-opacity:1"
       d="m 670.68982,1028.7074 3.71338,0 0,10.8655 q 0,2.4499 -1.50513,3.9111 -1.50513,1.4502 -3.8562,1.4502 -2.70264,0 -4.28467,-1.2964 -1.57104,-1.2964 -1.51611,-3.7683 l 0.033,-0.066 3.62549,0 q 0,1.1755 0.59326,1.7248 0.59326,0.5494 1.54907,0.5494 0.7251,0 1.18652,-0.6592 0.46143,-0.6702 0.46143,-1.8457 l 0,-10.8655 z" />
    <path
       inkscape:connector-curvature="0"
       id="path5498"
       style="font-style:normal;font-variant:normal;font-weight:normal;font-stretch:normal;font-size:22.5px;line-height:25.99999905%;font-family:Roboto;-inkscape-font-specification:Roboto;letter-spacing:1px;word-spacing:0px;fill:#a4fafa;fill-opacity:1;stroke:none;stroke-width:1px;stroke-linecap:butt;stroke-linejoin:miter;stroke-opacity:1"
       d="m 691.03674,1028.7074 0,10.3711 q 0,2.7466 -1.82373,4.3066 -1.82373,1.5491 -4.75708,1.5491 -2.95532,0 -4.79004,-1.5491 -1.83471,-1.56 -1.83471,-4.3066 l 0,-10.3711 3.72436,0 0,10.3711 q 0,1.4831 0.76904,2.2412 0.76905,0.7581 2.13135,0.7581 1.35132,0 2.09839,-0.7471 0.75806,-0.7581 0.75806,-2.2522 l 0,-10.3711 3.72436,0 z" />
    <path
       inkscape:connector-curvature="0"
       id="path5500"
       style="font-style:normal;font-variant:normal;font-weight:normal;font-stretch:normal;font-size:22.5px;line-height:25.99999905%;font-family:Roboto;-inkscape-font-specification:Roboto;letter-spacing:1px;word-spacing:0px;fill:#a4fafa;fill-opacity:1;stroke:none;stroke-width:1px;stroke-linecap:butt;stroke-linejoin:miter;stroke-opacity:1"
       d="m 698.20007,1039.2213 0,5.4822 -3.71338,0 0,-15.9961 6.1084,0 q 2.84546,0 4.51538,1.4502 1.66993,1.4502 1.66993,3.8122 0,2.3621 -1.66993,3.8123 -1.66992,1.4392 -4.51538,1.4392 l -2.39502,0 z m 0,-2.8564 2.39502,0 q 1.2085,0 1.84571,-0.6592 0.6372,-0.6702 0.6372,-1.7139 0,-1.0657 -0.6372,-1.7468 -0.62622,-0.6812 -1.84571,-0.6812 l -2.39502,0 0,4.8011 z" />
    <path
       inkscape:connector-curvature="0"
       id="path5502"
       style="font-style:normal;font-variant:normal;font-weight:normal;font-stretch:normal;font-size:22.5px;line-height:25.99999905%;font-family:Roboto;-inkscape-font-specification:Roboto;letter-spacing:1px;word-spacing:0px;fill:#a4fafa;fill-opacity:1;stroke:none;stroke-width:1px;stroke-linecap:butt;stroke-linejoin:miter;stroke-opacity:1"
       d="m 715.72351,1035.6947 0.0659,0 3.18603,-6.9873 4.021,0 -5.42725,10.3711 0,5.625 -3.70239,0 0,-5.7898 -5.33935,-10.2063 4.02099,0 3.17505,6.9873 z" />
    <path
       inkscape:connector-curvature="0"
       id="path5504"
       style="font-style:normal;font-variant:normal;font-weight:normal;font-stretch:normal;font-size:22.5px;line-height:25.99999905%;font-family:Roboto;-inkscape-font-specification:Roboto;letter-spacing:1px;word-spacing:0px;fill:#a4fafa;fill-opacity:1;stroke:none;stroke-width:1px;stroke-linecap:butt;stroke-linejoin:miter;stroke-opacity:1"
       d="m 736.53186,1031.5638 -4.22974,0 0,13.1397 -3.71337,0 0,-13.1397 -4.15284,0 0,-2.8564 12.09595,0 0,2.8564 z" />
    <path
       inkscape:connector-curvature="0"
       id="path5506"
       style="font-style:normal;font-variant:normal;font-weight:normal;font-stretch:normal;font-size:22.5px;line-height:25.99999905%;font-family:Roboto;-inkscape-font-specification:Roboto;letter-spacing:1px;word-spacing:0px;fill:#a4fafa;fill-opacity:1;stroke:none;stroke-width:1px;stroke-linecap:butt;stroke-linejoin:miter;stroke-opacity:1"
       d="m 748.40833,1037.859 -5.63599,0 0,3.988 6.75659,0 0,2.8565 -10.46997,0 0,-15.9961 10.48096,0 0,2.8564 -6.76758,0 0,3.4388 5.63599,0 0,2.8564 z" />
    <path
       inkscape:connector-curvature="0"
       id="path5508"
       style="font-style:normal;font-variant:normal;font-weight:normal;font-stretch:normal;font-size:22.5px;line-height:25.99999905%;font-family:Roboto;-inkscape-font-specification:Roboto;letter-spacing:1px;word-spacing:0px;fill:#a4fafa;fill-opacity:1;stroke:none;stroke-width:1px;stroke-linecap:butt;stroke-linejoin:miter;stroke-opacity:1"
       d="m 756.3407,1038.5731 0,6.1304 -3.71338,0 0,-15.9961 5.57007,0 q 2.77954,0 4.40552,1.2854 1.62597,1.2854 1.62597,3.5156 0,1.2415 -0.65918,2.1314 -0.64819,0.8899 -1.92261,1.4502 1.47217,0.4174 2.10938,1.3952 0.64819,0.9668 0.64819,2.417 l 0,1.0108 q 0,0.6262 0.18677,1.4282 0.18677,0.802 0.64819,1.1426 l 0,0.2197 -3.83422,0 q -0.43946,-0.3406 -0.57129,-1.1975 -0.13184,-0.857 -0.13184,-1.615 l 0,-0.9668 q 0,-1.1426 -0.60425,-1.7468 -0.60425,-0.6043 -1.7688,-0.6043 l -1.98852,0 z m 0,-2.8564 1.87866,0 q 1.12061,0 1.71387,-0.5054 0.59326,-0.5164 0.59326,-1.4722 0,-0.9777 -0.61524,-1.571 -0.60424,-0.6043 -1.71386,-0.6043 l -1.85669,0 0,4.1529 z" />
    <path
       inkscape:connector-curvature="0"
       id="path5510"
       style="font-style:normal;font-variant:normal;font-weight:normal;font-stretch:normal;font-size:22.5px;line-height:25.99999905%;font-family:Roboto;-inkscape-font-specification:Roboto;letter-spacing:1px;word-spacing:0px;fill:#a4fafa;fill-opacity:1;stroke:none;stroke-width:1px;stroke-linecap:butt;stroke-linejoin:miter;stroke-opacity:1"
       d="m 787.95984,1044.7035 -3.70239,0 -5.85572,-10.0635 -0.0659,0.022 0,10.0415 -3.71338,0 0,-15.9961 3.71338,0 5.85571,10.0525 0.0659,-0.022 0,-10.0305 3.70239,0 0,15.9961 z" />
    <path
       inkscape:connector-curvature="0"
       id="path5512"
       style="font-style:normal;font-variant:normal;font-weight:normal;font-stretch:normal;font-size:22.5px;line-height:25.99999905%;font-family:Roboto;-inkscape-font-specification:Roboto;letter-spacing:1px;word-spacing:0px;fill:#a4fafa;fill-opacity:1;stroke:none;stroke-width:1px;stroke-linecap:butt;stroke-linejoin:miter;stroke-opacity:1"
       d="m 804.8241,1038.1447 q 0,2.9553 -1.87867,4.8779 -1.86767,1.9116 -4.88891,1.9116 -3.04321,0 -4.93286,-1.9116 -1.88965,-1.9226 -1.88965,-4.8779 l 0,-2.8785 q 0,-2.9443 1.87866,-4.8669 1.88965,-1.9226 4.92188,-1.9226 3.01025,0 4.8999,1.9226 1.88965,1.9226 1.88965,4.8669 l 0,2.8785 z m -3.7024,-2.9004 q 0,-1.7139 -0.81298,-2.8125 -0.80201,-1.0987 -2.27417,-1.0987 -1.50513,0 -2.30713,1.0987 -0.79102,1.0876 -0.79102,2.8125 l 0,2.9004 q 0,1.7358 0.802,2.8344 0.81299,1.0987 2.31812,1.0987 1.46118,0 2.26318,-1.0987 0.802,-1.0986 0.802,-2.8344 l 0,-2.9004 z" />
    <path
       inkscape:connector-curvature="0"
       id="path5514"
       style="font-style:normal;font-variant:normal;font-weight:normal;font-stretch:normal;font-size:22.5px;line-height:25.99999905%;font-family:Roboto;-inkscape-font-specification:Roboto;letter-spacing:1px;word-spacing:0px;fill:#a4fafa;fill-opacity:1;stroke:none;stroke-width:1px;stroke-linecap:butt;stroke-linejoin:miter;stroke-opacity:1"
       d="m 818.90881,1031.5638 -4.22973,0 0,13.1397 -3.71338,0 0,-13.1397 -4.15283,0 0,-2.8564 12.09594,0 0,2.8564 z" />
    <path
       inkscape:connector-curvature="0"
       id="path5516"
       style="font-style:normal;font-variant:normal;font-weight:normal;font-stretch:normal;font-size:22.5px;line-height:25.99999905%;font-family:Roboto;-inkscape-font-specification:Roboto;letter-spacing:1px;word-spacing:0px;fill:#a4fafa;fill-opacity:1;stroke:none;stroke-width:1px;stroke-linecap:butt;stroke-linejoin:miter;stroke-opacity:1"
       d="m 830.78528,1037.859 -5.63599,0 0,3.988 6.75659,0 0,2.8565 -10.46997,0 0,-15.9961 10.48096,0 0,2.8564 -6.76758,0 0,3.4388 5.63599,0 0,2.8564 z" />
    <path
       inkscape:connector-curvature="0"
       id="path5518"
       style="font-style:normal;font-variant:normal;font-weight:normal;font-stretch:normal;font-size:22.5px;line-height:25.99999905%;font-family:Roboto;-inkscape-font-specification:Roboto;letter-spacing:1px;word-spacing:0px;fill:#a4fafa;fill-opacity:1;stroke:none;stroke-width:1px;stroke-linecap:butt;stroke-linejoin:miter;stroke-opacity:1"
       d="m 835.00427,1044.7035 0,-15.9961 5.24048,0 q 2.9773,0 4.63623,1.1096 1.66992,1.0986 1.66992,3.2849 0,1.1426 -0.52734,2.0325 -0.52734,0.8789 -1.64795,1.3293 1.42822,0.3077 2.10938,1.2745 0.69213,0.9668 0.69213,2.2302 0,2.3401 -1.57104,3.5376 -1.57105,1.1975 -4.5044,1.1975 l -6.09741,0 z m 3.71338,-6.8665 0,4.01 2.38403,0 q 1.18653,0 1.77979,-0.4614 0.59326,-0.4724 0.59326,-1.4392 0,-1.0217 -0.52734,-1.5491 -0.51636,-0.5273 -1.71387,-0.5603 l -0.12085,0 -2.39502,0 z m 0,-2.4609 1.46118,0 q 1.34034,0 1.99951,-0.4614 0.65918,-0.4724 0.65918,-1.3953 0,-1.0217 -0.6372,-1.4831 -0.63721,-0.4725 -1.95557,-0.4725 l -1.5271,0 0,3.8123 z" />
    <path
       inkscape:connector-curvature="0"
       id="path5520"
       style="font-style:normal;font-variant:normal;font-weight:normal;font-stretch:normal;font-size:22.5px;line-height:25.99999905%;font-family:Roboto;-inkscape-font-specification:Roboto;letter-spacing:1px;word-spacing:0px;fill:#a4fafa;fill-opacity:1;stroke:none;stroke-width:1px;stroke-linecap:butt;stroke-linejoin:miter;stroke-opacity:1"
       d="m 863.66785,1038.1447 q 0,2.9553 -1.87867,4.8779 -1.86767,1.9116 -4.88891,1.9116 -3.04321,0 -4.93286,-1.9116 -1.88965,-1.9226 -1.88965,-4.8779 l 0,-2.8785 q 0,-2.9443 1.87866,-4.8669 1.88965,-1.9226 4.92188,-1.9226 3.01025,0 4.8999,1.9226 1.88965,1.9226 1.88965,4.8669 l 0,2.8785 z m -3.7024,-2.9004 q 0,-1.7139 -0.81298,-2.8125 -0.80201,-1.0987 -2.27417,-1.0987 -1.50513,0 -2.30713,1.0987 -0.79102,1.0876 -0.79102,2.8125 l 0,2.9004 q 0,1.7358 0.802,2.8344 0.81299,1.0987 2.31812,1.0987 1.46118,0 2.26318,-1.0987 0.802,-1.0986 0.802,-2.8344 l 0,-2.9004 z" />
    <path
       inkscape:connector-curvature="0"
       id="path5522"
       style="font-style:normal;font-variant:normal;font-weight:normal;font-stretch:normal;font-size:22.5px;line-height:25.99999905%;font-family:Roboto;-inkscape-font-specification:Roboto;letter-spacing:1px;word-spacing:0px;fill:#a4fafa;fill-opacity:1;stroke:none;stroke-width:1px;stroke-linecap:butt;stroke-linejoin:miter;stroke-opacity:1"
       d="m 880.22449,1038.1447 q 0,2.9553 -1.87866,4.8779 -1.86768,1.9116 -4.88892,1.9116 -3.04321,0 -4.93286,-1.9116 -1.88965,-1.9226 -1.88965,-4.8779 l 0,-2.8785 q 0,-2.9443 1.87866,-4.8669 1.88965,-1.9226 4.92188,-1.9226 3.01025,0 4.8999,1.9226 1.88965,1.9226 1.88965,4.8669 l 0,2.8785 z m -3.7024,-2.9004 q 0,-1.7139 -0.81298,-2.8125 -0.80201,-1.0987 -2.27417,-1.0987 -1.50513,0 -2.30713,1.0987 -0.79102,1.0876 -0.79102,2.8125 l 0,2.9004 q 0,1.7358 0.802,2.8344 0.81299,1.0987 2.31812,1.0987 1.46118,0 2.26318,-1.0987 0.802,-1.0986 0.802,-2.8344 l 0,-2.9004 z" />
    <path
       inkscape:connector-curvature="0"
       id="path5524"
       style="font-style:normal;font-variant:normal;font-weight:normal;font-stretch:normal;font-size:22.5px;line-height:25.99999905%;font-family:Roboto;-inkscape-font-specification:Roboto;letter-spacing:1px;word-spacing:0px;fill:#a4fafa;fill-opacity:1;stroke:none;stroke-width:1px;stroke-linecap:butt;stroke-linejoin:miter;stroke-opacity:1"
       d="m 888.23376,1038.2875 -1.03271,0 0,6.416 -3.71338,0 0,-15.9961 3.71338,0 0,6.2622 0.76904,0 3.6145,-6.2622 4.66919,0 -5.03173,7.2729 5.4602,8.7232 -4.76807,0 -3.68042,-6.416 z" />
    <circle
       r="42.044041"
       cy="997.95221"
       cx="978.48163"
       id="circle5460"
       style="color:#000000;clip-rule:nonzero;display:inline;overflow:visible;visibility:visible;opacity:1;isolation:auto;mix-blend-mode:normal;color-interpolation:sRGB;color-interpolation-filters:linearRGB;solid-color:#000000;solid-opacity:1;fill:#ffffff;fill-opacity:1;fill-rule:evenodd;stroke:none;stroke-width:1;stroke-linecap:butt;stroke-linejoin:miter;stroke-miterlimit:4;stroke-dasharray:none;stroke-dashoffset:0;stroke-opacity:1;color-rendering:auto;image-rendering:auto;shape-rendering:auto;text-rendering:auto;enable-background:accumulate" />
    <g
       id="g5448"
       transform="matrix(0.16771839,0,0,0.16771839,791.25121,876.20506)">
      <g
         id="g5439">
        <g
           transform="translate(907.76955,506.2026)"
           style="fill:#414042"
           id="g4768">
          <path
             inkscape:connector-curvature="0"
             d="m 60.9,232 c 0,12.7 -1,16.9 -3.6,20 -2.3,2.5 -6.1,3.7 -10.5,4.1 l 1,7.6 c 5.2,0 12.2,-1.8 16.5,-6 4.7,-4.8 6.4,-11.5 6.4,-21.9 l 0,-48.2 -9.7,0 0,44.4 z m 72.2,-5.8 c 0,5.5 0.1,10.3 0.4,14.5 l -8.6,0 -0.5,-8.7 -0.2,0 c -2.5,4.3 -8.1,9.9 -17.6,9.9 -8.3,0 -18.3,-4.6 -18.3,-23.3 l 0,-31.1 9.7,0 0,29.5 c 0,10.1 3.1,16.9 11.9,16.9 6.5,0 11,-4.5 12.7,-8.8 0.5,-1.4 0.9,-3.2 0.9,-4.9 l 0,-32.6 9.7,0 0,38.6 z m 18.2,-21.3 c 0,-6.8 -0.2,-12.3 -0.4,-17.3 l 8.7,0 0.4,9.1 0.2,0 c 4,-6.5 10.2,-10.3 18.9,-10.3 12.8,0 22.5,10.9 22.5,27 0,19.1 -11.6,28.5 -24.2,28.5 -7,0 -13.2,-3.1 -16.4,-8.3 l -0.2,0 0,28.9 -9.6,0 0,-57.6 z m 9.5,14.2 c 0,1.4 0.2,2.7 0.4,4 1.8,6.7 7.6,11.3 14.5,11.3 10.2,0 16.1,-8.3 16.1,-20.5 0,-10.7 -5.6,-19.8 -15.8,-19.8 -6.6,0 -12.7,4.7 -14.6,12 -0.3,1.2 -0.7,2.6 -0.7,4 l 0,9 z m 57.9,-31.5 11.6,31.4 c 1.2,3.5 2.5,7.7 3.4,10.9 l 0.2,0 c 1,-3.2 2.1,-7.2 3.4,-11.1 l 10.5,-31.2 10.2,0 -14.5,37.9 c -6.9,18.2 -11.6,27.6 -18.2,33.3 -4.7,4.2 -9.4,5.8 -11.9,6.3 L 211,257 c 2.4,-0.8 5.6,-2.3 8.5,-4.7 2.6,-2.1 5.9,-5.8 8.1,-10.8 0.4,-1 0.8,-1.8 0.8,-2.3 0,-0.5 -0.2,-1.3 -0.7,-2.5 l -19.7,-49 10.7,0 z m 64.8,-15.3 0,15.3 13.8,0 0,7.4 -13.8,0 0,28.7 c 0,6.6 1.9,10.3 7.2,10.3 2.5,0 4.4,-0.3 5.6,-0.7 l 0.4,7.2 c -1.9,0.8 -4.8,1.3 -8.6,1.3 -4.5,0 -8.1,-1.4 -10.4,-4.1 -2.7,-2.9 -3.7,-7.6 -3.7,-13.8 l 0,-29 -8.2,0 0,-7.4 8.2,0 0,-12.7 9.5,-2.5 z m 31.7,43.6 c 0.2,13.1 8.6,18.4 18.2,18.4 6.9,0 11.1,-1.2 14.7,-2.7 l 1.6,6.9 c -3.4,1.5 -9.2,3.3 -17.7,3.3 -16.4,0 -26.1,-10.8 -26.1,-26.8 0,-16 9.4,-28.7 24.9,-28.7 17.3,0 22,15.3 22,25 0,2 -0.2,3.5 -0.3,4.5 l -37.3,0 z m 28.3,-6.9 c 0.1,-6.1 -2.5,-15.7 -13.4,-15.7 -9.8,0 -14.1,9 -14.8,15.7 l 28.2,0 z m 23.5,-4.9 c 0,-6.3 -0.1,-11.6 -0.4,-16.6 l 8.5,0 0.3,10.4 0.4,0 c 2.4,-7.1 8.2,-11.6 14.7,-11.6 1.1,0 1.9,0.1 2.7,0.3 l 0,9.1 c -1,-0.2 -2,-0.3 -3.3,-0.3 -6.8,0 -11.6,5.2 -13,12.4 -0.2,1.3 -0.4,2.9 -0.4,4.5 l 0,28.3 -9.5,0 0,-36.5 z"
             id="path4770" />
        </g>
        <circle
           style="fill:#6d6e71"
           cx="1237.5696"
           cy="546.80261"
           r="21.4"
           id="circle4772" />
        <path
           inkscape:connector-curvature="0"
           style="fill:url(#a)"
           d="m 1127.7696,832.6026 c -65.5,0 -122.6,-23.5 -152.30005,-58.3 22.5,62.3 82.20005,106.9 152.30005,106.9 70.1,0 129.8,-44.6 152.3,-106.9 -29.7,34.8 -86.8,58.3 -152.3,58.3 z"
           id="path4789" />
        <path
           inkscape:connector-curvature="0"
           style="fill:url(#b)"
           d="m 1127.7696,606.2026 c 65.5,0 122.6,23.5 152.3,58.3 -22.5,-62.3 -82.2,-106.9 -152.3,-106.9 -70.1,0 -129.80005,44.6 -152.20005,106.9 29.70005,-34.7 86.70005,-58.3 152.20005,-58.3 z"
           id="path4806" />
        <circle
           style="fill:#939598"
           cx="1018.2695"
           cy="900.6026"
           r="25.799999"
           id="circle4808" />
        <circle
           style="fill:#58595b"
           cx="992.86957"
           cy="576.20258"
           r="15.7"
           id="circle4810" />
      </g>
    </g>
    <rect
       style="color:#000000;clip-rule:nonzero;display:inline;overflow:visible;visibility:visible;opacity:0.74800002;isolation:auto;mix-blend-mode:normal;color-interpolation:sRGB;color-interpolation-filters:linearRGB;solid-color:#000000;solid-opacity:1;fill:#000000;fill-opacity:1;fill-rule:evenodd;stroke:none;stroke-width:1;stroke-linecap:butt;stroke-linejoin:miter;stroke-miterlimit:4;stroke-dasharray:none;stroke-dashoffset:0;stroke-opacity:1;color-rendering:auto;image-rendering:auto;shape-rendering:auto;text-rendering:auto;enable-background:accumulate"
       id="rect4211"
       width="1063.9037"
       height="141.79559"
       x="-4.9463592"
       y="305.46219" />
    <rect
       style="color:#000000;clip-rule:nonzero;display:inline;overflow:visible;visibility:visible;opacity:1;isolation:auto;mix-blend-mode:normal;color-interpolation:sRGB;color-interpolation-filters:linearRGB;solid-color:#000000;solid-opacity:1;fill:#ffffff;fill-opacity:1;fill-rule:evenodd;stroke:none;stroke-width:1;stroke-linecap:butt;stroke-linejoin:miter;stroke-miterlimit:4;stroke-dasharray:none;stroke-dashoffset:0;stroke-opacity:1;color-rendering:auto;image-rendering:auto;shape-rendering:auto;text-rendering:auto;enable-background:accumulate"
       id="rect4213"
       width="1113.4865"
       height="7.3609385"
       x="-39.024483"
       y="440.66263" />
  </g>
</svg>
